# xmcd
#
# Track frame offsets:
#	150
#	20199
#	40736
#	60426
#	83569
#	102359
#	126470
#	151279
#	181554
#	209881
#	239496
#
# Disc length: 3460 seconds
#
# Revision: 0
# Processed by: cddbd v1.5.1PL0 Copyright (c) Steve Scherf et al.
# Submitted via: dBpowerAMP V4.0
#
DISCID=920d820b
DTITLE=Mono - Formica Blues
DYEAR=1997
DGENRE=Trip-Hop
TTITLE0=Life in mono
TTITLE1=Silicone
TTITLE2=Slimcea girl
TTITLE3=The outsider
TTITLE4=Disney town
TTITLE5=The blind man
TTITLE6=High life
TTITLE7=Playboys
TTITLE8=Penguin freud
TTITLE9=Hello Cleveland!
TTITLE10=Life in mono (Alice Band Mix)
EXTD=
EXTT0=
EXTT1=
EXTT2=
EXTT3=
EXTT4=
EXTT5=
EXTT6=
EXTT7=
EXTT8=
EXTT9=
EXTT10=
PLAYORDER=
